Coordinates
version=1
nRows=16
nColumns=36
inDegrees=yes

Units are S.I. units (second, meters, Newtons, ...)
If the header above contains a line with 'inDegrees', this indicates whether rotational values are in degrees (yes) or radians (no).

endheader
time	pelvis_tilt	pelvis_list	pelvis_rotation	pelvis_tx	pelvis_ty	pelvis_tz	hip_flexion_r	hip_adduction_r	hip_rotation_r	knee_angle_r	knee_angle_r_beta	ankle_angle_r	subtalar_angle_r	mtp_angle_r	hip_flexion_l	hip_adduction_l	hip_rotation_l	knee_angle_l	knee_angle_l_beta	ankle_angle_l	subtalar_angle_l	mtp_angle_l	lumbar_extension	lumbar_bending	lumbar_rotation	arm_flex_r	arm_add_r	arm_rot_r	elbow_flex_r	pro_sup_r	arm_flex_l	arm_add_l	arm_rot_l	elbow_flex_l	pro_sup_l
      0.00000000	      2.86325978	     -1.19529159	      3.17490311	     -0.78640506	      1.32391023	     -0.03413952	     -7.17183881	      3.21437973	      6.98824349	      1.86153675	      0.03248995	      1.23734538	    -16.91401018	     -4.59979364	     -6.64030312	     -4.62931334	      9.49246249	      2.82013596	      0.04922066	      9.57034300	     -1.99118521	     -4.59979364	    -16.02846062	      0.43533481	     -0.34450841	      5.56400322	     -4.38610962	     16.07124347	     26.64613059	     76.42479296	      2.56282927	     -4.72466044	      7.38207547	     24.19546185	     71.01347023
      0.01694910	     -2.05599862	     -1.55896181	      3.88805904	     -0.78194891	      1.31379175	     -0.03580804	     -1.35001108	      3.39915681	      7.28969666	      3.14288109	      0.05485362	      2.90996779	    -14.50555195	     -5.57736195	     -0.62243351	     -4.44601964	     11.87442213	      2.92261356	      0.05100923	      7.91972949	     -1.12352695	     -5.57736195	     -8.35441372	      0.72467903	     -0.60996064	      3.18582054	     -3.80412072	     11.69888629	     26.05016278	     81.51916855	      0.30589188	     -3.92014988	      0.89821336	     22.94332915	     75.06385669
      0.03389830	     -3.18100685	     -1.25029311	      4.09852723	     -0.78742972	      1.30829657	     -0.03944665	     -0.65200419	      2.69269548	      6.46081273	      1.95030884	      0.03403931	      3.06972344	    -13.48115432	     -5.56635299	      0.61991006	     -4.17579111	     11.79387874	      2.39222080	      0.04175213	      6.91572071	     -0.08614342	     -5.56635299	     -6.93361275	      0.20403973	     -0.49863300	      2.66859245	     -3.60852202	     10.65886957	     26.86368489	     80.15552539	      0.23637652	     -4.45856638	      2.09208990	     23.15205823	     74.74090177
      0.05084750	     -2.97517521	     -1.00831549	      4.08981003	     -0.78758450	      1.30869504	     -0.03890214	     -1.22380845	      2.36576245	      6.39335775	      1.45320891	      0.02536328	      4.02811715	    -12.29387824	     -5.96560393	      0.13822438	     -4.00756291	     12.30103956	      1.84062996	      0.03212505	      6.56433845	     -0.27086386	     -5.96560393	     -7.29613517	     -0.26193175	     -0.20911114	      2.31496747	     -3.85885965	     11.21956950	     28.29558347	     78.23921245	      0.34677467	     -5.19735269	      3.81117857	     23.35139797	     74.11597852
      0.06779660	     -2.89147433	     -0.93099924	      3.92624956	     -0.78180984	      1.30914266	     -0.04316688	     -1.70067408	      2.15074564	      6.61086199	      1.16938197	      0.02040957	      4.48103179	    -12.24951956	     -5.97313461	     -0.21185727	     -3.84379776	     12.54432957	      1.52622628	      0.02663767	      7.12028121	     -0.41129317	     -5.97313461	     -7.05639715	     -0.24378898	     -0.11129448	      2.11993395	     -3.99780212	     11.43414639	     28.67873507	     78.26619811	      0.01171796	     -5.14227634	      4.00499044	     23.28047195	     74.19869204
      0.08474580	     -2.44629011	     -0.81486893	      3.73981577	     -0.78774295	      1.31327253	     -0.03802348	     -2.23829486	      2.09888642	      6.72049999	      1.06315265	      0.01855551	      5.24675083	    -11.98847069	     -6.08819083	     -0.78778283	     -3.73653125	     12.79424979	      1.25680398	      0.02193537	      7.40608693	     -1.25231370	     -6.08819083	     -7.87680723	     -0.41425223	      0.24647073	      2.19003227	     -4.67332673	     14.51603873	     30.32408028	     78.29509476	      0.62919544	     -5.45545510	      6.11585512	     23.20579701	     75.16419193
      0.10169490	     -2.38496260	     -0.71456474	      3.67669959	     -0.78249377	      1.31309228	     -0.04262994	     -2.42525322	      1.90887387	      6.72722372	      1.02560527	      0.01790019	      5.35706399	    -12.05912052	     -6.09006190	     -0.86821137	     -3.57751295	     12.82160782	      1.20069878	      0.02095615	      7.61372230	     -1.35646438	     -6.09006190	     -7.79763939	     -0.37065336	      0.20297524	      2.01219155	     -4.58222128	     14.61920844	     30.35607872	     78.30071969	      0.63403764	     -5.19646112	      6.15598903	     23.24120038	     75.17370681
      0.11864410	     -2.07431279	     -0.58632511	      3.61739215	     -0.78294153	      1.30942979	     -0.04227892	     -2.98574568	      1.76515285	      7.07827744	      0.85771466	      0.01496994	      5.52761964	    -12.53238189	     -6.17256795	     -1.33674935	     -3.40290137	     13.27794373	      1.12146367	      0.01957323	      7.96735294	     -2.30051424	     -6.17256795	     -7.97084873	     -0.56234028	      0.25408590	      1.99433214	     -5.17874075	     18.26989145	     30.98991769	     77.92662099	      0.70561699	     -5.17384651	      6.27290102	     23.22769316	     75.21654551
      0.13559320	     -1.89823725	     -0.52808224	      3.53358403	     -0.78290722	      1.31013182	     -0.04214434	     -3.20488296	      1.66196970	      7.05470788	      0.90370382	      0.01577261	      5.75512439	    -12.67932292	     -6.65205242	     -1.55847757	     -3.30432810	     13.47960476	      1.17521531	      0.02051138	      8.28476848	     -2.76704257	     -6.65205242	     -7.98895217	     -0.55533634	      0.18957685	      1.86027201	     -5.41353796	     19.95476591	     31.39095611	     74.25925405	      0.67286029	     -5.06561619	      6.45406827	     23.37316131	     72.21682719
      0.15254240	     -1.95548538	     -0.53874577	      3.39171700	     -0.78288068	      1.30963837	     -0.04178335	     -3.11086178	      1.65407412	      7.32771072	      0.96553459	      0.01685176	      5.74982091	    -12.96973275	     -7.05491717	     -1.51908105	     -3.26372076	     13.74294297	      1.22187849	      0.02132580	      8.37565406	     -3.25050802	     -7.05491717	     -7.59661074	     -0.55077763	     -0.04841787	      2.12402227	     -5.62230398	     22.78374582	     30.92574767	     73.44251983	      0.59797176	     -5.10130193	      7.29184385	     23.31051281	     72.20881619
      0.16949150	     -1.91570965	     -0.51745314	      3.35470435	     -0.78283913	      1.31002795	     -0.04168092	     -3.06701171	      1.58622303	      7.24612516	      0.98600094	      0.01720896	      5.86599498	    -13.06197547	     -7.39599778	     -1.62191458	     -3.23748531	     13.79185710	      1.25501150	      0.02190408	      8.42929790	     -3.57376084	     -7.39599778	     -7.41848413	     -0.51453217	     -0.05696516	      2.10519665	     -5.57103698	     22.72831760	     30.92335864	     76.87958661	      0.67719344	     -4.92198571	      6.23424161	     23.24788304	     76.04905443
      0.18644070	     -1.90330259	     -0.52555559	      3.31235379	     -0.78268283	      1.31628199	     -0.04168431	     -3.01521795	      1.58093277	      7.26074684	      0.95557235	      0.01667788	      5.79586259	    -12.96717285	     -7.39652163	     -1.70976672	     -3.26010807	     13.85594478	      1.18925934	      0.02075649	      8.44926949	     -3.59437874	     -7.39652163	     -7.19026438	     -0.44291505	     -0.04534822	      2.07196817	     -5.48498062	     22.83153455	     30.88739485	     76.89630685	      0.73382648	     -4.85140005	      6.25269905	     23.25860024	     76.05132144
      0.20338980	     -1.90979063	     -0.53934496	      3.20918407	     -0.78293843	      1.30899818	     -0.04137012	     -2.88260819	      1.59863049	      7.45648474	      0.94636310	      0.01651715	      5.65956498	    -13.23695737	     -7.40030413	     -1.75963022	     -3.28187700	     13.89813946	      1.08748179	      0.01898014	      8.49489650	     -3.87707681	     -7.40030413	     -6.94010332	     -0.43221127	     -0.15343417	      2.21104864	     -5.59072420	     24.07584666	     30.71948309	     77.27889009	      0.79975166	     -4.85655509	      6.83792554	     23.43090382	     76.19392599
      0.22033900	     -1.83115418	     -0.60655432	      3.21033084	     -0.78267323	      1.31217974	     -0.04122546	     -2.90843731	      1.70274840	      7.46498102	      0.92854505	      0.01620617	      5.60683009	    -13.23878531	     -7.46838060	     -1.91226246	     -3.38547644	     13.87902064	      1.00316894	      0.01750860	      8.56603664	     -3.86389827	     -7.46838060	     -6.75115067	     -0.33454390	     -0.30647649	      2.48259972	     -5.56002379	     26.17700901	     30.37176674	     69.73906863	      0.96835061	     -4.85599570	      8.23464919	     23.21773394	     69.14987985
      0.23728810	     -1.76985284	     -0.68483930	      3.17524630	     -0.77674351	      1.31207230	     -0.03736757	     -3.04185004	      1.88938085	      7.58100453	      0.89542861	      0.01562818	      5.51276350	    -13.10644638	     -7.46850267	     -2.10363532	     -3.58401472	     13.89713227	      0.88824968	      0.01550288	      8.56483230	     -3.81167919	     -7.46850267	     -6.46054889	     -0.28782869	     -0.43570385	      2.29615419	     -5.39596903	     26.29783446	     30.28813671	     69.86094464	      0.85860325	     -4.95516965	      8.31361577	     23.21632977	     69.27668905
      0.25423730	     -1.93661914	     -0.79979896	      3.12793915	     -0.77662270	      1.31093370	     -0.03743452	     -2.92755739	      2.08145131	      7.53121014	      0.88433561	      0.01543457	      5.50965705	    -12.96393346	     -7.49099528	     -2.09655482	     -3.77226586	     13.76194366	      0.74454698	      0.01299480	      8.72594457	     -3.43576598	     -7.49099528	     -5.79823427	     -0.15533888	     -0.71378012	      2.31759070	     -5.25439977	     26.28284494	     29.54703174	     77.26137777	      0.58216257	     -4.96886479	      7.46503909	     23.30926808	     77.15295006
